<mxfile host="65bd71144e">
    <diagram id="lW2ouq8hKeiMMTJWlAPY" name="Page-1">
        <mxGraphModel dx="1057" dy="950" grid="1" gridSize="10" guides="1" tooltips="1" connect="1" arrows="1" fold="1" page="1" pageScale="1" pageWidth="1100" pageHeight="1700" math="0" shadow="0">
            <root>
                <mxCell id="0"/>
                <mxCell id="1" style="locked=1;" parent="0"/>
                <mxCell id="2" value="kubernetes-architecture" style="" parent="0"/>
                <mxCell id="13" value="" style="rounded=0;whiteSpace=wrap;html=1;" vertex="1" parent="2">
                    <mxGeometry x="178" y="85" width="710" height="380" as="geometry"/>
                </mxCell>
                <mxCell id="5" value="&lt;span style=&quot;font-size: 16px&quot;&gt;Virtual Server&lt;/span&gt;" style="rounded=1;whiteSpace=wrap;html=1;fillColor=#a0522d;strokeColor=#6D1F00;fontColor=#ffffff;fontStyle=1" vertex="1" parent="2">
                    <mxGeometry x="240" y="120" width="260" height="280" as="geometry"/>
                </mxCell>
                <mxCell id="12" value="&lt;span&gt;&lt;font style=&quot;font-size: 16px&quot;&gt;&lt;b&gt;Virtual Server&lt;/b&gt;&lt;/font&gt;&lt;/span&gt;" style="rounded=1;whiteSpace=wrap;html=1;strokeColor=#6D1F00;fillColor=#a0522d;fontColor=#ffffff;" vertex="1" parent="2">
                    <mxGeometry x="560" y="120" width="260" height="280" as="geometry"/>
                </mxCell>
                <mxCell id="33" value="&lt;span style=&quot;color: rgb(255, 255, 255); font-family: helvetica; font-size: 27px; font-style: normal; letter-spacing: normal; text-align: center; text-indent: 0px; text-transform: none; word-spacing: 0px; background-color: rgb(42, 42, 42); display: inline; float: none;&quot;&gt;Kubernetes&lt;/span&gt;" style="text;whiteSpace=wrap;html=1;fontSize=27;fontColor=#FFFFFF;fontStyle=0" vertex="1" parent="2">
                    <mxGeometry x="440" y="10" width="160" height="40" as="geometry"/>
                </mxCell>
                <mxCell id="15" value="VM labels" style="locked=1;" parent="0"/>
                <mxCell id="20" value="AWS - EC2" style="text;html=1;resizable=0;autosize=1;align=center;verticalAlign=middle;points=[];fillColor=#60a917;strokeColor=#2D7600;rounded=0;fontSize=16;fontColor=#ffffff;" vertex="1" parent="15">
                    <mxGeometry x="460" y="510" width="100" height="20" as="geometry"/>
                </mxCell>
                <mxCell id="21" value="Azure - Virtual Machines" style="text;html=1;resizable=0;autosize=1;align=center;verticalAlign=middle;points=[];fillColor=#60a917;strokeColor=#2D7600;rounded=0;fontSize=16;fontColor=#ffffff;" vertex="1" parent="15">
                    <mxGeometry x="460" y="540" width="190" height="20" as="geometry"/>
                </mxCell>
                <mxCell id="22" value="GCP - Compute Engines" style="text;html=1;resizable=0;autosize=1;align=center;verticalAlign=middle;points=[];fillColor=#60a917;strokeColor=#2D7600;rounded=0;fontSize=16;fontColor=#ffffff;" vertex="1" parent="15">
                    <mxGeometry x="460" y="570" width="190" height="20" as="geometry"/>
                </mxCell>
                <mxCell id="34" value="&lt;span style=&quot;color: rgb(255, 255, 255); font-family: helvetica; font-size: 27px; font-style: normal; letter-spacing: normal; text-align: center; text-indent: 0px; text-transform: none; word-spacing: 0px; background-color: rgb(42, 42, 42); display: inline; float: none;&quot;&gt;Kubernetes&lt;/span&gt;" style="text;whiteSpace=wrap;html=1;fontSize=27;fontColor=#FFFFFF;fontStyle=0" vertex="1" parent="15">
                    <mxGeometry x="440" y="10" width="160" height="40" as="geometry"/>
                </mxCell>
                <mxCell id="23" value="Cluster view 1" style="" parent="0"/>
                <mxCell id="24" value="" style="rounded=0;whiteSpace=wrap;html=1;" vertex="1" parent="23">
                    <mxGeometry x="178" y="85" width="710" height="380" as="geometry"/>
                </mxCell>
                <mxCell id="25" value="&lt;span style=&quot;font-size: 16px&quot;&gt;Node&lt;/span&gt;" style="rounded=1;whiteSpace=wrap;html=1;fillColor=#a0522d;strokeColor=#6D1F00;fontColor=#ffffff;fontStyle=1" vertex="1" parent="23">
                    <mxGeometry x="240" y="120" width="260" height="280" as="geometry"/>
                </mxCell>
                <mxCell id="26" value="&lt;span&gt;&lt;font style=&quot;font-size: 16px&quot;&gt;Node&lt;/font&gt;&lt;/span&gt;" style="rounded=1;whiteSpace=wrap;html=1;strokeColor=#6D1F00;fillColor=#a0522d;fontColor=#ffffff;fontStyle=1" vertex="1" parent="23">
                    <mxGeometry x="560" y="120" width="260" height="280" as="geometry"/>
                </mxCell>
                <mxCell id="36" value="&lt;span style=&quot;color: rgb(255, 255, 255); font-family: helvetica; font-size: 27px; font-style: normal; letter-spacing: normal; text-align: center; text-indent: 0px; text-transform: none; word-spacing: 0px; background-color: rgb(42, 42, 42); display: inline; float: none;&quot;&gt;Kubernetes&lt;/span&gt;" style="text;whiteSpace=wrap;html=1;fontSize=27;fontColor=#FFFFFF;fontStyle=0" vertex="1" parent="23">
                    <mxGeometry x="440" y="10" width="160" height="40" as="geometry"/>
                </mxCell>
                <mxCell id="28" value="Cluster View - 2" style="" parent="0"/>
                <mxCell id="29" value="" style="rounded=0;whiteSpace=wrap;html=1;" vertex="1" parent="28">
                    <mxGeometry x="178" y="85" width="710" height="380" as="geometry"/>
                </mxCell>
                <mxCell id="30" value="&lt;span style=&quot;font-size: 16px&quot;&gt;Master Node(s)&lt;/span&gt;" style="rounded=1;whiteSpace=wrap;html=1;fillColor=#a0522d;strokeColor=#6D1F00;fontColor=#ffffff;fontStyle=1" vertex="1" parent="28">
                    <mxGeometry x="240" y="120" width="260" height="280" as="geometry"/>
                </mxCell>
                <mxCell id="31" value="&lt;span&gt;&lt;font style=&quot;font-size: 16px&quot;&gt;Worker Node(s)&lt;/font&gt;&lt;/span&gt;" style="rounded=1;whiteSpace=wrap;html=1;strokeColor=#6D1F00;fillColor=#a0522d;fontColor=#ffffff;fontStyle=1" vertex="1" parent="28">
                    <mxGeometry x="560" y="120" width="260" height="280" as="geometry"/>
                </mxCell>
                <mxCell id="32" value="Cluster" style="text;html=1;resizable=0;autosize=1;align=center;verticalAlign=middle;points=[];fillColor=none;strokeColor=none;rounded=0;strokeWidth=1;fontSize=20;" vertex="1" parent="28">
                    <mxGeometry x="493" y="420" width="80" height="30" as="geometry"/>
                </mxCell>
                <mxCell id="37" value="&lt;span style=&quot;color: rgb(255, 255, 255); font-family: helvetica; font-size: 27px; font-style: normal; letter-spacing: normal; text-align: center; text-indent: 0px; text-transform: none; word-spacing: 0px; background-color: rgb(42, 42, 42); display: inline; float: none;&quot;&gt;Kubernetes&lt;/span&gt;" style="text;whiteSpace=wrap;html=1;fontSize=27;fontColor=#FFFFFF;fontStyle=0" vertex="1" parent="28">
                    <mxGeometry x="440" y="10" width="160" height="40" as="geometry"/>
                </mxCell>
            </root>
        </mxGraphModel>
    </diagram>
</mxfile>